<?xml version="1.0"?>
<svg width="900" height="225" xmlns="http://www.w3.org/2000/svg" xmlns:svg="http://www.w3.org/2000/svg" preserveAspectRatio="xMidYMid meet" version="1.0">
 <defs>
  <g id="svg_1"/>
 </defs>
 <g class="layer">
  <title>Layer 1</title>
  <g fill="#1a2029" id="svg_2">
   <g id="svg_3" transform="translate(275.939205, 93.07229)">
    <g id="svg_4">
     <path d="m18.04,-67.5l-9.58,0l0,67.5l9.58,0l0,-67.5zm0,0" id="svg_5"/>
    </g>
   </g>
  </g>
  <g fill="#1a2029" id="svg_6">
   <g id="svg_7" transform="translate(302.436109, 93.07229)">
    <g id="svg_8">
     <path d="m7.72,-67.5l0,67.5l9.3,0l0,-57.55l42.39,57.55l12.93,0l0,-67.5l-9.3,0l0,57.55l-42.49,-57.55l-12.83,0zm0,0" id="svg_9"/>
    </g>
   </g>
  </g>
  <g fill="#1a2029" id="svg_10">
   <g id="svg_11" transform="translate(382.484655, 93.07229)">
    <g id="svg_12">
     <path d="m17.29,-58.67l23.16,0c16.82,0 25.47,7.07 25.47,24.83c0,18.31 -8.65,25.01 -25.47,25.01l-23.16,0l0,-49.84zm-9.57,58.67l29.75,0c22.69,0 38.4,-7.72 38.4,-33.75c0,-24.54 -14.23,-33.75 -34.68,-33.75l-33.47,0l0,67.5zm0,0" id="svg_13"/>
    </g>
   </g>
  </g>
  <g fill="#1a2029" id="svg_14">
   <g id="svg_15" transform="translate(462.347256, 93.07229)">
    <g id="svg_16">
     <path d="m7.72,-67.5l0,42.3c0,17.57 10.32,26.97 29.84,26.97c19.53,0 29.85,-9.4 29.85,-26.97l0,-42.3l-9.58,0l0,38.3c0,14.79 -6.23,22.13 -20.36,22.13c-14.04,0 -20.18,-7.34 -20.18,-22.13l0,-38.3l-9.57,0zm0,0" id="svg_17"/>
    </g>
   </g>
  </g>
  <g fill="#1a2029" id="svg_18">
   <g id="svg_19" transform="translate(537.468299, 93.07229)">
    <g id="svg_20">
     <path d="m62.2,-47.88c0,-13.67 -9.57,-21.39 -26.87,-21.39c-18.69,0 -28.45,7.72 -28.45,20.36c0,10.23 6.32,15.53 19.53,17.86l16.64,2.97c7.99,1.4 11.62,4 11.62,9.58c0,7.06 -6.51,11.43 -18.69,11.43c-13.94,0 -20.82,-5.11 -21.2,-15.71l-10.13,0c0,16.18 10.6,24.55 30.77,24.55c18.97,0 29.29,-8.09 29.29,-21.11c0,-11.34 -6.79,-15.62 -21.01,-18.32l-14.79,-2.88c-8.18,-1.58 -11.99,-3.71 -11.99,-9.2c0,-6.79 5.95,-10.69 17.67,-10.69c11.71,0 17.48,3.9 18.12,12.55l9.49,0zm0,0" id="svg_21"/>
    </g>
   </g>
  </g>
  <g fill="#1a2029" id="svg_22">
   <g id="svg_23" transform="translate(606.732125, 93.07229)">
    <g id="svg_24">
     <path d="m0,-67.5l0,8.83l25.75,0l0,58.67l9.58,0l0,-58.67l25.76,0l0,-8.83l-61.09,0zm0,0" id="svg_25"/>
    </g>
   </g>
  </g>
  <g fill="#1a2029" id="svg_26">
   <g id="svg_27" transform="translate(667.814466, 93.07229)">
    <g id="svg_28">
     <path d="m7.72,0l9.57,0l0,-29.01l25.2,0c10.97,0 13.11,3.07 13.94,16.27c0.47,7.16 0.84,10.79 1.68,12.74l11.16,0c-2.05,-1.95 -2.52,-7.44 -3.07,-16.36c-0.75,-12 -3.25,-14.78 -10.6,-16.18c7.62,-2.42 11.62,-7.81 11.62,-16.55c0,-11.9 -8.27,-18.41 -23.99,-18.41l-35.51,0l0,67.5zm9.57,-59.6l21.3,0c13.01,0 19.05,2.14 19.05,11.25c0,8.74 -5.85,11.44 -18.22,11.44l-22.13,0l0,-22.69zm0,0" id="svg_29"/>
    </g>
   </g>
  </g>
  <g fill="#1a2029" id="svg_30">
   <g id="svg_31" transform="translate(741.540979, 93.07229)">
    <g id="svg_32">
     <path d="m18.04,-67.5l-9.58,0l0,67.5l9.58,0l0,-67.5zm0,0" id="svg_33"/>
    </g>
   </g>
  </g>
  <g fill="#1a2029" id="svg_34">
   <g id="svg_35" transform="translate(768.037896, 93.07229)">
    <g id="svg_36">
     <path d="m0,0l10.13,0l8.93,-19.25l34.49,0l8.56,19.25l9.94,0l-30.03,-67.5l-9.95,0l-32.07,67.5zm23.06,-28.08l13.67,-28.73l12.92,28.73l-26.59,0zm0,0" id="svg_37"/>
    </g>
   </g>
  </g>
  <g fill="#1a2029" id="svg_38">
   <g id="svg_39" transform="translate(840.090889, 93.07229)">
    <g id="svg_40">
     <path d="m17.29,-67.5l-9.57,0l0,67.5l50.85,0l0,-8.83l-41.28,0l0,-58.67zm0,0" id="svg_41"/>
    </g>
   </g>
  </g>
  <g fill="#1a2029" id="svg_42">
   <g id="svg_43" transform="translate(276.87557, 209.453067)">
    <g id="svg_44">
     <path d="m118.95,-63.84c-2.82,-20.97 -23.93,-36.29 -54.84,-36.29c-35.89,0 -58.47,20.43 -58.47,51.34c0,31.05 23.79,51.34 57.13,51.34c15.05,0 26.74,-4.43 36.02,-13.57l1.34,11.02l18.55,0l0,-53.36l-48.12,0l0,20.03l22.18,0c-4.44,9.54 -14.92,15.86 -28.63,15.86c-19.49,0 -31.59,-11.83 -31.59,-31.32c0,-19.49 12.1,-31.32 31.59,-31.32c14.52,0 23.79,5.38 28.23,16.27l26.61,0zm0,0" id="svg_45"/>
    </g>
   </g>
  </g>
  <g fill="#1a2029" id="svg_46">
   <g id="svg_47" transform="translate(405.901991, 209.453067)">
    <g id="svg_48">
     <path d="m64.11,-100.13c-35.89,0 -58.47,20.43 -58.47,51.34c0,30.91 22.58,51.34 58.47,51.34c35.89,0 58.33,-20.43 58.33,-51.34c0,-30.91 -22.44,-51.34 -58.33,-51.34zm0,20.02c19.49,0 31.45,11.7 31.45,31.32c0,19.49 -11.96,31.32 -31.45,31.32c-19.49,0 -31.59,-11.83 -31.59,-31.32c0,-19.49 12.1,-31.32 31.59,-31.32zm0,0" id="svg_49"/>
    </g>
   </g>
  </g>
  <g fill="#1a2029" id="svg_50">
   <g id="svg_51" transform="translate(533.987592, 209.453067)">
    <g id="svg_52">
     <path d="m64.11,-100.13c-35.89,0 -58.47,20.43 -58.47,51.34c0,30.91 22.58,51.34 58.47,51.34c35.89,0 58.33,-20.43 58.33,-51.34c0,-30.91 -22.44,-51.34 -58.33,-51.34zm0,20.02c19.49,0 31.45,11.7 31.45,31.32c0,19.49 -11.96,31.32 -31.45,31.32c-19.49,0 -31.59,-11.83 -31.59,-31.32c0,-19.49 12.1,-31.32 31.59,-31.32zm0,0" id="svg_53"/>
    </g>
   </g>
  </g>
  <g fill="#1a2029" id="svg_54">
   <g id="svg_55" transform="translate(662.073181, 209.453067)">
    <g id="svg_56">
     <path d="m10.89,0l44.08,0c34.14,0 60.35,-11.02 60.35,-48.79c0,-35.35 -24.33,-48.78 -54.57,-48.78l-49.86,0l0,97.57zm24.46,-77.55l19.08,0c22.58,0 34.14,9.54 34.14,28.36c0,18.81 -11.56,29.16 -34.14,29.16l-19.08,0l0,-57.52zm0,0" id="svg_57"/>
    </g>
   </g>
  </g>
  <g fill="#1a2029" id="svg_58">
   <g id="svg_59" transform="translate(783.035439, 209.453067)">
    <g id="svg_60">
     <path d="m104.83,-67.61c0,-20.43 -17.47,-32.52 -48.65,-32.52c-29.43,0 -47.04,14.11 -47.04,32.39c0,16.53 12.09,24.86 36.96,27.42l17.2,1.75c13.18,1.34 19.22,3.09 19.22,10.61c0,7.53 -7.79,11.97 -22.31,11.97c-18.82,0 -28.49,-5.92 -28.36,-17.74l-24.99,0c0,24.32 17.47,36.28 50.39,36.28c34.28,0 51.89,-11.82 51.89,-33.19c0,-17.21 -11.83,-25.94 -36.29,-28.63l-18.15,-1.88c-13.98,-1.48 -19.75,-2.56 -19.75,-9.81c0,-6.86 7.52,-11.16 21.63,-11.16c14.92,0 22.85,4.84 23.93,14.51l24.32,0zm0,0" id="svg_61"/>
    </g>
   </g>
  </g>
  <path d="m193.04,56.13c0,-0.5 -0.49,-0.5 -0.49,-1l-25.34,-27.81l-21.35,-20.86c-5.47,-5.47 -14.41,-6.46 -20.86,-1.99l-51.16,34.77c-0.5,0.49 -0.5,0.49 -0.99,0.99l-16.89,23.84l141.06,0l-3.98,-7.94zm0,0" fill="#65ac2b" fill-rule="nonzero" id="svg_62"/>
  <path d="m233.77,71.03l-217.55,0c-7.94,0 -14.4,6.45 -14.4,14.4c0,7.95 6.46,14.41 14.4,14.41l217.06,0c7.94,0 14.4,-6.46 14.4,-14.41c0.5,-7.95 -5.96,-14.4 -13.91,-14.4zm0,0" fill="#65ac2b" fill-rule="nonzero" id="svg_63"/>
  <path d="m180.13,194.7c0,0.49 -0.05,0.98 -0.14,1.46c-0.1,0.48 -0.24,0.94 -0.43,1.39c-0.18,0.45 -0.41,0.88 -0.68,1.29c-0.28,0.41 -0.59,0.79 -0.93,1.13c-0.35,0.35 -0.72,0.66 -1.13,0.93c-0.41,0.27 -0.84,0.5 -1.29,0.69c-0.45,0.18 -0.92,0.32 -1.4,0.42c-0.48,0.1 -0.96,0.14 -1.45,0.14c-0.49,0 -0.97,-0.04 -1.45,-0.14c-0.48,-0.1 -0.95,-0.24 -1.4,-0.42c-0.45,-0.19 -0.88,-0.42 -1.29,-0.69c-0.41,-0.27 -0.78,-0.58 -1.13,-0.93c-0.34,-0.34 -0.65,-0.72 -0.93,-1.13c-0.27,-0.41 -0.5,-0.84 -0.68,-1.29c-0.19,-0.45 -0.33,-0.91 -0.43,-1.39c-0.09,-0.48 -0.14,-0.97 -0.14,-1.46c0,-0.49 0.05,-0.97 0.14,-1.45c0.1,-0.48 0.24,-0.95 0.43,-1.4c0.18,-0.45 0.41,-0.88 0.68,-1.29c0.28,-0.4 0.59,-0.78 0.93,-1.13c0.35,-0.34 0.72,-0.65 1.13,-0.92c0.41,-0.28 0.84,-0.5 1.29,-0.69c0.45,-0.19 0.92,-0.33 1.4,-0.43c0.48,-0.09 0.96,-0.14 1.45,-0.14c0.49,0 0.97,0.05 1.45,0.14c0.48,0.1 0.95,0.24 1.4,0.43c0.45,0.19 0.88,0.41 1.29,0.69c0.41,0.27 0.78,0.58 1.13,0.92c0.34,0.35 0.65,0.73 0.93,1.13c0.27,0.41 0.5,0.84 0.68,1.29c0.19,0.45 0.33,0.92 0.43,1.4c0.09,0.48 0.14,0.96 0.14,1.45zm0,0" fill="#65ac2b" fill-rule="nonzero" id="svg_64"/>
  <path d="m172.68,163.41c-16.89,0 -30.79,13.91 -30.79,30.8c0,16.88 13.9,30.79 30.79,30.79c16.89,0 30.8,-13.91 30.8,-30.79c0,-16.89 -13.42,-30.8 -30.8,-30.8zm0,45.7c-7.95,0 -14.9,-6.46 -14.9,-14.9c0,-8.45 6.46,-14.91 14.9,-14.91c8.45,0 14.9,6.46 14.9,14.91c0,8.44 -6.45,14.9 -14.9,14.9zm0,0" fill="#65ac2b" fill-rule="nonzero" id="svg_65" transform="matrix(1 0 0 1 0 0)"/>
  <path d="m84.77,194.7c0,0.49 -0.05,0.98 -0.14,1.46c-0.1,0.48 -0.24,0.94 -0.43,1.39c-0.19,0.45 -0.42,0.88 -0.69,1.29c-0.27,0.41 -0.58,0.79 -0.92,1.13c-0.35,0.35 -0.73,0.66 -1.13,0.93c-0.41,0.27 -0.84,0.5 -1.29,0.69c-0.46,0.18 -0.92,0.32 -1.4,0.42c-0.48,0.1 -0.97,0.14 -1.45,0.14c-0.49,0 -0.98,-0.04 -1.46,-0.14c-0.48,-0.1 -0.94,-0.24 -1.4,-0.42c-0.45,-0.19 -0.88,-0.42 -1.28,-0.69c-0.41,-0.27 -0.79,-0.58 -1.13,-0.93c-0.35,-0.34 -0.66,-0.72 -0.93,-1.13c-0.27,-0.41 -0.5,-0.84 -0.69,-1.29c-0.18,-0.45 -0.32,-0.91 -0.42,-1.39c-0.1,-0.48 -0.14,-0.97 -0.14,-1.46c0,-0.49 0.04,-0.97 0.14,-1.45c0.1,-0.48 0.24,-0.95 0.42,-1.4c0.19,-0.45 0.42,-0.88 0.69,-1.29c0.27,-0.4 0.58,-0.78 0.93,-1.13c0.34,-0.34 0.72,-0.65 1.13,-0.92c0.4,-0.28 0.83,-0.5 1.28,-0.69c0.46,-0.19 0.92,-0.33 1.4,-0.43c0.48,-0.09 0.97,-0.14 1.46,-0.14c0.48,0 0.97,0.05 1.45,0.14c0.48,0.1 0.94,0.24 1.4,0.43c0.45,0.19 0.88,0.41 1.29,0.69c0.4,0.27 0.78,0.58 1.13,0.92c0.34,0.35 0.65,0.73 0.92,1.13c0.27,0.41 0.5,0.84 0.69,1.29c0.19,0.45 0.33,0.92 0.43,1.4c0.09,0.48 0.14,0.96 0.14,1.45zm0,0" fill="#65ac2b" fill-rule="nonzero" id="svg_66"/>
  <path d="m77.32,163.41c-16.89,0 -30.8,13.91 -30.8,30.8c0,16.88 13.91,30.79 30.8,30.79c16.88,0 30.79,-13.91 30.79,-30.79c0,-16.89 -13.91,-30.8 -30.79,-30.8zm0,45.7c-7.95,0 -14.91,-6.46 -14.91,-14.9c0,-8.45 6.46,-14.91 14.91,-14.91c8.44,0 14.89,6.46 14.89,14.91c0,8.44 -6.95,14.9 -14.89,14.9zm0,0" fill="#65ac2b" fill-rule="nonzero" id="svg_67"/>
  <path d="m48.01,169.37c6.95,-8.44 17.38,-13.41 29.31,-13.41c11.42,0 21.85,4.97 29.3,13.41l37.25,0c6.95,-8.44 17.39,-13.41 29.31,-13.41c11.42,0 21.85,4.97 29.3,13.41l10.43,0l12.42,-62.58l-200.17,0l12.42,62.58l10.43,0zm0,0" fill="#65ac2b" fill-rule="nonzero" id="svg_68"/>
  <path d="m111.59,176.82c2.48,5.47 4.47,11.43 4.47,17.39c0,5.95 -1.49,12.41 -4.47,17.38l27.32,0c-2.49,-5.46 -3.98,-11.43 -3.98,-17.38c0,-5.96 1.49,-12.42 3.98,-17.39l-27.32,0zm0,0" fill="#65ac2b" fill-rule="nonzero" id="svg_70"/>
 </g>
</svg>