<?xml version="1.0"?>
<svg width="900" height="225" xmlns="http://www.w3.org/2000/svg" xmlns:svg="http://www.w3.org/2000/svg" preserveAspectRatio="xMidYMid meet" version="1.0">
 <defs>
  <g id="svg_1"/>
 </defs>
 <g class="layer">
  <title>Layer 1</title>
  <g fill="#ffffff" id="svg_2">
   <g id="svg_3" transform="translate(275.952852, 92.611697)">
    <g id="svg_4">
     <path d="m18.09,-67.69l-9.61,0l0,67.69l9.61,0l0,-67.69zm0,0" id="svg_5"/>
    </g>
   </g>
  </g>
  <g fill="#ffffff" id="svg_6">
   <g id="svg_7" transform="translate(302.525258, 92.611697)">
    <g id="svg_8">
     <path d="m7.74,-67.69l0,67.69l9.32,0l0,-57.71l42.52,57.71l12.96,0l0,-67.69l-9.33,0l0,57.71l-42.6,-57.71l-12.87,0zm0,0" id="svg_9"/>
    </g>
   </g>
  </g>
  <g fill="#ffffff" id="svg_10">
   <g id="svg_11" transform="translate(382.801899, 92.611697)">
    <g id="svg_12">
     <path d="m17.34,-58.83l23.22,0c16.87,0 25.55,7.08 25.55,24.89c0,18.37 -8.68,25.08 -25.55,25.08l-23.22,0l0,-49.97zm-9.6,58.83l29.83,0c22.75,0 38.51,-7.74 38.51,-33.85c0,-24.61 -14.26,-33.84 -34.78,-33.84l-33.56,0l0,67.69zm0,0" id="svg_13"/>
    </g>
   </g>
  </g>
  <g fill="#ffffff" id="svg_14">
   <g id="svg_15" transform="translate(462.892064, 92.611697)">
    <g id="svg_16">
     <path d="m7.74,-67.69l0,42.42c0,17.63 10.35,27.04 29.93,27.04c19.58,0 29.93,-9.41 29.93,-27.04l0,-42.42l-9.6,0l0,38.41c0,14.83 -6.25,22.19 -20.43,22.19c-14.07,0 -20.23,-7.36 -20.23,-22.19l0,-38.41l-9.6,0zm0,0" id="svg_17"/>
    </g>
   </g>
  </g>
  <g fill="#ffffff" id="svg_18">
   <g id="svg_19" transform="translate(538.22716, 92.611697)">
    <g id="svg_20">
     <path d="m62.38,-48.02c0,-13.7 -9.61,-21.44 -26.95,-21.44c-18.74,0 -28.53,7.74 -28.53,20.42c0,10.25 6.34,15.57 19.58,17.9l16.69,2.98c8.02,1.4 11.65,4.01 11.65,9.61c0,7.08 -6.52,11.46 -18.74,11.46c-13.98,0 -20.88,-5.12 -21.26,-15.75l-10.16,0c0,16.22 10.63,24.61 30.86,24.61c19.03,0 29.37,-8.11 29.37,-21.16c0,-11.38 -6.8,-15.67 -21.07,-18.37l-14.82,-2.89c-8.21,-1.59 -12.03,-3.73 -12.03,-9.23c0,-6.81 5.97,-10.73 17.71,-10.73c11.75,0 17.53,3.92 18.19,12.59l9.51,0zm0,0" id="svg_21"/>
    </g>
   </g>
  </g>
  <g fill="#ffffff" id="svg_22">
   <g id="svg_23" transform="translate(607.688351, 92.611697)">
    <g id="svg_24">
     <path d="m0,-67.69l0,8.86l25.83,0l0,58.83l9.6,0l0,-58.83l25.83,0l0,-8.86l-61.26,0zm0,0" id="svg_25"/>
    </g>
   </g>
  </g>
  <g fill="#ffffff" id="svg_26">
   <g id="svg_27" transform="translate(668.944742, 92.611697)">
    <g id="svg_28">
     <path d="m7.74,0l9.6,0l0,-29.09l25.27,0c11,0 13.15,3.07 13.99,16.32c0.46,7.18 0.83,10.81 1.67,12.77l11.19,0c-2.05,-1.96 -2.51,-7.46 -3.07,-16.41c-0.75,-12.03 -3.27,-14.82 -10.63,-16.22c7.64,-2.43 11.65,-7.83 11.65,-16.6c0,-11.93 -8.3,-18.46 -24.05,-18.46l-35.62,0l0,67.69zm9.6,-59.77l21.36,0c13.05,0 19.11,2.15 19.11,11.29c0,8.76 -5.88,11.46 -18.27,11.46l-22.2,0l0,-22.75zm0,0" id="svg_29"/>
    </g>
   </g>
  </g>
  <g fill="#ffffff" id="svg_30">
   <g id="svg_31" transform="translate(742.881335, 92.611697)">
    <g id="svg_32">
     <path d="m18.09,-67.69l-9.61,0l0,67.69l9.61,0l0,-67.69zm0,0" id="svg_33"/>
    </g>
   </g>
  </g>
  <g fill="#ffffff" id="svg_34">
   <g id="svg_35" transform="translate(769.453754, 92.611697)">
    <g id="svg_36">
     <path d="m0,0l10.16,0l8.95,-19.3l34.6,0l8.58,19.3l9.97,0l-30.12,-67.69l-9.97,0l-32.17,67.69zm23.13,-28.16l13.7,-28.81l12.96,28.81l-26.66,0zm0,0" id="svg_37"/>
    </g>
   </g>
  </g>
  <g fill="#ffffff" id="svg_38">
   <g id="svg_39" transform="translate(841.712058, 92.611697)">
    <g id="svg_40">
     <path d="m17.34,-67.69l-9.6,0l0,67.69l51,0l0,-8.86l-41.4,0l0,-58.83zm0,0" id="svg_41"/>
    </g>
   </g>
  </g>
  <g fill="#ffffff" id="svg_42">
   <g id="svg_43" transform="translate(276.891886, 209.324095)">
    <g id="svg_44">
     <path d="m119.29,-64.02c-2.84,-21.03 -24,-36.39 -55,-36.39c-35.99,0 -58.63,20.48 -58.63,51.48c0,31.14 23.86,51.49 57.29,51.49c15.09,0 26.82,-4.45 36.12,-13.61l1.34,11.05l18.61,0l0,-53.51l-48.26,0l0,20.08l22.24,0c-4.45,9.57 -14.96,15.91 -28.71,15.91c-19.54,0 -31.67,-11.86 -31.67,-31.41c0,-19.54 12.13,-31.4 31.67,-31.4c14.56,0 23.86,5.39 28.31,16.31l26.69,0zm0,0" id="svg_45"/>
    </g>
   </g>
  </g>
  <g fill="#ffffff" id="svg_46">
   <g id="svg_47" transform="translate(406.285961, 209.324095)">
    <g id="svg_48">
     <path d="m64.29,-100.41c-35.99,0 -58.63,20.48 -58.63,51.48c0,31 22.64,51.49 58.63,51.49c35.99,0 58.5,-20.49 58.5,-51.49c0,-31 -22.51,-51.48 -58.5,-51.48zm0,20.08c19.55,0 31.54,11.72 31.54,31.4c0,19.55 -11.99,31.41 -31.54,31.41c-19.54,0 -31.67,-11.86 -31.67,-31.41c0,-19.54 12.13,-31.4 31.67,-31.4zm0,0" id="svg_49"/>
    </g>
   </g>
  </g>
  <g fill="#ffffff" id="svg_50">
   <g id="svg_51" transform="translate(534.736536, 209.324095)">
    <g id="svg_52">
     <path d="m64.29,-100.41c-35.99,0 -58.63,20.48 -58.63,51.48c0,31 22.64,51.49 58.63,51.49c35.99,0 58.5,-20.49 58.5,-51.49c0,-31 -22.51,-51.48 -58.5,-51.48zm0,20.08c19.55,0 31.54,11.72 31.54,31.4c0,19.55 -11.99,31.41 -31.54,31.41c-19.54,0 -31.67,-11.86 -31.67,-31.41c0,-19.54 12.13,-31.4 31.67,-31.4zm0,0" id="svg_53"/>
    </g>
   </g>
  </g>
  <g fill="#ffffff" id="svg_54">
   <g id="svg_55" transform="translate(663.187097, 209.324095)">
    <g id="svg_56">
     <path d="m10.92,0l44.21,0c34.23,0 60.51,-11.05 60.51,-48.93c0,-35.45 -24.39,-48.93 -54.72,-48.93l-50,0l0,97.86zm24.53,-77.77l19.14,0c22.64,0 34.23,9.57 34.23,28.44c0,18.87 -11.59,29.25 -34.23,29.25l-19.14,0l0,-57.69zm0,0" id="svg_57"/>
    </g>
   </g>
  </g>
  <g fill="#ffffff" id="svg_58">
   <g id="svg_59" transform="translate(784.494031, 209.324095)">
    <g id="svg_60">
     <path d="m105.13,-67.8c0,-20.49 -17.52,-32.61 -48.79,-32.61c-29.52,0 -47.18,14.15 -47.18,32.48c0,16.58 12.14,24.93 37.07,27.49l17.25,1.76c13.21,1.34 19.28,3.1 19.28,10.64c0,7.55 -7.82,12 -22.38,12c-18.86,0 -28.57,-5.93 -28.43,-17.79l-25.07,0c0,24.4 17.51,36.39 50.54,36.39c34.37,0 52.03,-11.86 52.03,-33.29c0,-17.25 -11.86,-26.02 -36.4,-28.71l-18.19,-1.89c-14.02,-1.48 -19.82,-2.56 -19.82,-9.84c0,-6.87 7.55,-11.19 21.71,-11.19c14.96,0 22.91,4.86 23.99,14.56l24.39,0zm0,0" id="svg_61"/>
    </g>
   </g>
  </g>
  <path d="m193.04,56.13c0,-0.5 -0.49,-0.5 -0.49,-1l-25.34,-27.81l-21.35,-20.86c-5.47,-5.47 -14.41,-6.46 -20.86,-1.99l-51.16,34.77c-0.5,0.49 -0.5,0.49 -0.99,0.99l-16.89,23.84l141.06,0l-3.98,-7.94zm0,0" fill="#65ac2b" fill-rule="nonzero" id="svg_62"/>
  <path d="m233.77,71.03l-217.55,0c-7.94,0 -14.4,6.45 -14.4,14.4c0,7.95 6.46,14.41 14.4,14.41l217.06,0c7.94,0 14.4,-6.46 14.4,-14.41c0.5,-7.95 -5.96,-14.4 -13.91,-14.4zm0,0" fill="#65ac2b" fill-rule="nonzero" id="svg_63"/>
  <path d="m180.13,194.7c0,0.49 -0.05,0.98 -0.14,1.46c-0.1,0.48 -0.24,0.94 -0.43,1.39c-0.18,0.45 -0.41,0.88 -0.68,1.29c-0.28,0.41 -0.59,0.79 -0.93,1.13c-0.35,0.35 -0.72,0.66 -1.13,0.93c-0.41,0.27 -0.84,0.5 -1.29,0.69c-0.45,0.18 -0.92,0.32 -1.4,0.42c-0.48,0.1 -0.96,0.14 -1.45,0.14c-0.49,0 -0.97,-0.04 -1.45,-0.14c-0.48,-0.1 -0.95,-0.24 -1.4,-0.42c-0.45,-0.19 -0.88,-0.42 -1.29,-0.69c-0.41,-0.27 -0.78,-0.58 -1.13,-0.93c-0.34,-0.34 -0.65,-0.72 -0.93,-1.13c-0.27,-0.41 -0.5,-0.84 -0.68,-1.29c-0.19,-0.45 -0.33,-0.91 -0.43,-1.39c-0.09,-0.48 -0.14,-0.97 -0.14,-1.46c0,-0.49 0.05,-0.97 0.14,-1.45c0.1,-0.48 0.24,-0.95 0.43,-1.4c0.18,-0.45 0.41,-0.88 0.68,-1.29c0.28,-0.4 0.59,-0.78 0.93,-1.13c0.35,-0.34 0.72,-0.65 1.13,-0.92c0.41,-0.28 0.84,-0.5 1.29,-0.69c0.45,-0.19 0.92,-0.33 1.4,-0.43c0.48,-0.09 0.96,-0.14 1.45,-0.14c0.49,0 0.97,0.05 1.45,0.14c0.48,0.1 0.95,0.24 1.4,0.43c0.45,0.19 0.88,0.41 1.29,0.69c0.41,0.27 0.78,0.58 1.13,0.92c0.34,0.35 0.65,0.73 0.93,1.13c0.27,0.41 0.5,0.84 0.68,1.29c0.19,0.45 0.33,0.92 0.43,1.4c0.09,0.48 0.14,0.96 0.14,1.45zm0,0" fill="#65ac2b" fill-rule="nonzero" id="svg_64"/>
  <path d="m172.68,163.41c-16.89,0 -30.79,13.91 -30.79,30.8c0,16.88 13.9,30.79 30.79,30.79c16.89,0 30.8,-13.91 30.8,-30.79c0,-16.89 -13.42,-30.8 -30.8,-30.8zm0,45.7c-7.95,0 -14.9,-6.46 -14.9,-14.9c0,-8.45 6.46,-14.91 14.9,-14.91c8.45,0 14.9,6.46 14.9,14.91c0,8.44 -6.45,14.9 -14.9,14.9zm0,0" fill="#65ac2b" fill-rule="nonzero" id="svg_65"/>
  <path d="m84.77,194.7c0,0.49 -0.05,0.98 -0.14,1.46c-0.1,0.48 -0.24,0.94 -0.43,1.39c-0.19,0.45 -0.42,0.88 -0.69,1.29c-0.27,0.41 -0.58,0.79 -0.92,1.13c-0.35,0.35 -0.73,0.66 -1.13,0.93c-0.41,0.27 -0.84,0.5 -1.29,0.69c-0.46,0.18 -0.92,0.32 -1.4,0.42c-0.48,0.1 -0.97,0.14 -1.45,0.14c-0.49,0 -0.98,-0.04 -1.46,-0.14c-0.48,-0.1 -0.94,-0.24 -1.4,-0.42c-0.45,-0.19 -0.88,-0.42 -1.28,-0.69c-0.41,-0.27 -0.79,-0.58 -1.13,-0.93c-0.35,-0.34 -0.66,-0.72 -0.93,-1.13c-0.27,-0.41 -0.5,-0.84 -0.69,-1.29c-0.18,-0.45 -0.32,-0.91 -0.42,-1.39c-0.1,-0.48 -0.14,-0.97 -0.14,-1.46c0,-0.49 0.04,-0.97 0.14,-1.45c0.1,-0.48 0.24,-0.95 0.42,-1.4c0.19,-0.45 0.42,-0.88 0.69,-1.29c0.27,-0.4 0.58,-0.78 0.93,-1.13c0.34,-0.34 0.72,-0.65 1.13,-0.92c0.4,-0.28 0.83,-0.5 1.28,-0.69c0.46,-0.19 0.92,-0.33 1.4,-0.43c0.48,-0.09 0.97,-0.14 1.46,-0.14c0.48,0 0.97,0.05 1.45,0.14c0.48,0.1 0.94,0.24 1.4,0.43c0.45,0.19 0.88,0.41 1.29,0.69c0.4,0.27 0.78,0.58 1.13,0.92c0.34,0.35 0.65,0.73 0.92,1.13c0.27,0.41 0.5,0.84 0.69,1.29c0.19,0.45 0.33,0.92 0.43,1.4c0.09,0.48 0.14,0.96 0.14,1.45zm0,0" fill="#65ac2b" fill-rule="nonzero" id="svg_66"/>
  <path d="m77.32,163.41c-16.89,0 -30.8,13.91 -30.8,30.8c0,16.88 13.91,30.79 30.8,30.79c16.88,0 30.79,-13.91 30.79,-30.79c0,-16.89 -13.91,-30.8 -30.79,-30.8zm0,45.7c-7.95,0 -14.91,-6.46 -14.91,-14.9c0,-8.45 6.46,-14.91 14.91,-14.91c8.44,0 14.89,6.46 14.89,14.91c0,8.44 -6.95,14.9 -14.89,14.9zm0,0" fill="#65ac2b" fill-rule="nonzero" id="svg_67"/>
  <path d="m48.01,169.37c6.95,-8.44 17.38,-13.41 29.31,-13.41c11.42,0 21.85,4.97 29.3,13.41l37.25,0c6.95,-8.44 17.39,-13.41 29.31,-13.41c11.42,0 21.85,4.97 29.3,13.41l10.43,0l12.42,-62.58l-200.17,0l12.42,62.58l10.43,0zm0,0" fill="#65ac2b" fill-rule="nonzero" id="svg_68"/>
  <path d="m111.59,176.82c2.48,5.47 4.47,11.43 4.47,17.39c0,5.95 -1.49,12.41 -4.47,17.38l27.32,0c-2.49,-5.46 -3.98,-11.43 -3.98,-17.38c0,-5.96 1.49,-12.42 3.98,-17.39l-27.32,0zm0,0" fill="#65ac2b" fill-rule="nonzero" id="svg_70"/>
 </g>
</svg>